<?xml version="1.0" encoding="utf-8"?>
<!-- Generator: Adobe Illustrator 24.2.0, SVG Export Plug-In . SVG Version: 6.00 Build 0)  -->
<svg version="1.1" id="Layer_1" xmlns="http://www.w3.org/2000/svg" xmlns:xlink="http://www.w3.org/1999/xlink" x="0px" y="0px"
	 viewBox="0 0 290 106.55" style="enable-background:new 0 0 290 106.55;" xml:space="preserve">
<style type="text/css">
	.st0{fill:#323D9B;}
	.st1{fill:#FFABD8;}
	.st2{fill:#FFFFFF;}
</style>
<g>
	<g>
		<path class="st0" d="M37.98,100.2l-5.02-6.18c-2.59,0.81-5.42,1.25-8.43,1.25C10.22,95.27,0,85.48,0,71.87
			s10.22-23.39,24.53-23.39C38.82,48.48,49,58.22,49,71.87c0,7-2.68,12.98-7.22,17.14l9.25,11.19H37.98z M24.53,83.85
			c6.78,0,11.69-5.01,11.69-11.98c0-6.97-4.91-11.98-11.69-11.98s-11.76,5.05-11.76,11.98C12.78,78.8,17.75,83.85,24.53,83.85z"/>
		<path class="st0" d="M54.33,79.39V59.78h11.84v19.09c0,3.63,1.95,5.76,5.11,5.76c3.16,0,5.07-2.17,5.07-5.76V59.78h11.84v19.61
			c0,9.61-6.76,15.88-16.91,15.88C61.13,95.27,54.33,89,54.33,79.39z"/>
		<path class="st0" d="M95.2,59.78h11.84v34.36H95.2V59.78z M95.29,45.44h11.65v10.04H95.29V45.44z"/>
		<path class="st0" d="M141.74,83.62v10.52h-29.67v-1.76l13.16-22.15h-12V59.78h28.37v1.93l-12.98,21.91H141.74z"/>
		<path class="st0" d="M183.4,59.74V94.1h-9.15l-1.02-2.43c-2.81,2.28-6.38,3.59-10.37,3.59c-10.51,0-18.02-7.67-18.02-18.34
			c0-10.64,7.51-18.22,18.02-18.22c4.05,0,7.66,1.35,10.5,3.69l1.21-2.66H183.4z M172.15,76.95c0-4.46-3.26-7.81-7.69-7.81
			c-4.46,0-7.69,3.35-7.69,7.81c0,4.49,3.26,7.84,7.69,7.84C168.89,84.79,172.15,81.44,172.15,76.95z"/>
		<path class="st0" d="M228.98,76.96c0,10.71-7.51,18.34-18.02,18.34c-3.11,0-5.95-0.82-8.37-2.28v13.53h-11.7V59.78h8.05l1.48,2.73
			c2.83-2.44,6.46-3.86,10.55-3.86C221.47,58.65,228.98,66.26,228.98,76.96z M217.07,76.96c0-4.52-3.26-7.86-7.69-7.86
			s-7.69,3.35-7.69,7.86c0,4.51,3.26,7.86,7.69,7.86C213.78,84.82,217.07,81.47,217.07,76.96z"/>
		<path class="st0" d="M272.52,76.96c0,10.71-7.51,18.34-18.02,18.34c-3.11,0-5.95-0.82-8.37-2.28v13.53h-11.7V59.78h8.05l1.48,2.73
			c2.83-2.44,6.46-3.86,10.55-3.86C265.01,58.65,272.52,66.26,272.52,76.96z M260.61,76.96c0-4.52-3.26-7.86-7.69-7.86
			s-7.69,3.35-7.69,7.86c0,4.51,3.26,7.86,7.69,7.86C257.33,84.82,260.61,81.47,260.61,76.96z"/>
		<path class="st0" d="M278.52,83.15H290v10.99h-11.48V83.15z M278.77,48.33h11.05v30.99h-11.05V48.33z"/>
	</g>
	<path class="st1" d="M283.43,0H241c-3.61,0-6.57,2.96-6.57,6.57v27.9c0,3.61,2.96,6.57,6.57,6.57h7.26v7.68l14.55-7.68h20.62
		c3.61,0,6.57-2.96,6.57-6.57V6.57C290,2.96,287.04,0,283.43,0z"/>
</g>
<g>
	<path class="st2" d="M258.78,24.62c0-3.86,1.91-5.24,3.49-6.38c1.14-0.81,2.09-1.49,2.09-2.87c0-1.44-1.08-2.35-2.37-2.35
		c-1.3,0-2.52,0.87-2.52,2.46h-5.93c0-5.07,3.83-7.75,8.46-7.75c4.82,0,8.45,2.96,8.45,7.58c0,3.22-1.8,4.61-3.4,5.85
		c-1.27,0.98-2.39,1.84-2.39,3.46v0.65h-5.9V24.62z M258.64,26.97h6.12v5.86h-6.12V26.97z"/>
</g>
</svg>
